:version 1.10
:name ASF
:units
  mass 1
  length 1
  angle deg
:documentation
  ASF file generated by Kaydara
:root
  axis xyz
  order  tx ty tz rx ry rz
  position 0 0 0
  orientation 0 0 0
:bonedata
  begin
    id 1
    name lfemurDummy
    direction 0.61522 -0.761478 0.204097
    length 5.68318
    axis 0 -0 0 xyz
  end
  begin
    id 2
    name lfemur
    direction 0.34202 -0.939693 -5.84747e-008
    length 16.9147
    axis 0 -0 20 xyz
    dof rx ry rz
    limits( -inf , inf )
( -inf , inf )
( -inf , inf )

  end
  begin
    id 3
    name ltibia
    direction 0.34202 -0.939693 1.20839e-009
    length 18.0532
    axis 0 -0 20 xyz
    dof rz ry rx
    limits( -inf , inf )
( -inf , inf )
( -inf , inf )

  end
  begin
    id 4
    name lfoot
    direction 0.0841971 -0.23133 0.969225
    length 5.23822
    axis -90 7.62852e-016 20 xyz
    dof ry rx rz
    limits( -inf , inf )
( -inf , inf )
( -inf , inf )

  end
  begin
    id 5
    name ltoes
    direction 0 0 0
    length 0
    axis 0 0 0 xyz
    dof rz ry rx
    limits( -inf , inf )
( -inf , inf )
( -inf , inf )

  end
  begin
    id 6
    name rfemurDummy
    direction -0.625247 -0.75382 0.202044
    length 5.74091
    axis 0 -0 0 xyz
  end
  begin
    id 7
    name rfemur
    direction -0.34202 -0.939693 -1.47013e-008
    length 16.4922
    axis 0 -0 -20 xyz
    dof rx ry rz
    limits( -inf , inf )
( -inf , inf )
( -inf , inf )

  end
  begin
    id 8
    name rtibia
    direction -0.34202 -0.939693 -7.74345e-010
    length 18.2421
    axis 0 -0 -20 xyz
    dof rz ry rx
    limits( -inf , inf )
( -inf , inf )
( -inf , inf )

  end
  begin
    id 9
    name rfoot
    direction -0.124331 -0.341598 0.931586
    length 5.45787
    axis -90 -7.62852e-016 -20 xyz
    dof ry rx rz
    limits( -inf , inf )
( -inf , inf )
( -inf , inf )

  end
  begin
    id 10
    name rtoes
    direction 0 0 0
    length 0
    axis 0 0 0 xyz
    dof rz ry rx
    limits( -inf , inf )
( -inf , inf )
( -inf , inf )

  end
  begin
    id 11
    name lowerbackDummy
    direction 0 0 0
    length 0
    axis 0 -0 0 xyz
  end
  begin
    id 12
    name lowerback
    direction -0.0218484 0.994884 -0.0986304
    length 4.45607
    axis 0 -0 0 xyz
    dof rx ry rz
    limits( -inf , inf )
( -inf , inf )
( -inf , inf )

  end
  begin
    id 13
    name upperback
    direction -0.00973057 0.999717 -0.0217111
    length 4.47449
    axis 0 -0 0 xyz
    dof rx ry rz
    limits( -inf , inf )
( -inf , inf )
( -inf , inf )

  end
  begin
    id 14
    name thorax
    direction -0.000928171 0.999699 0.0245198
    length 4.50973
    axis 0 -0 0 xyz
    dof rx ry rz
    limits( -inf , inf )
( -inf , inf )
( -inf , inf )

  end
  begin
    id 15
    name rclavicle
    direction -0.9009 0.425937 -0.0834055
    length 7.28587
    axis 0 -0 0 xyz
    dof rx ry rz
    limits( -inf , inf )
( -inf , inf )
( -inf , inf )

  end
  begin
    id 16
    name rhumerus
    direction -1 -2.23604e-007 -1.42637e-007
    length 13.5704
    axis 180 30 90 xyz
    dof rx ry rz
    limits( -inf , inf )
( -inf , inf )
( -inf , inf )

  end
  begin
    id 17
    name rradius
    direction -1 5.68281e-008 -4.4952e-007
    length 8.06782
    axis 180 30 90 xyz
    dof rz ry rx
    limits( -inf , inf )
( -inf , inf )
( -inf , inf )

  end
  begin
    id 18
    name rwrist
    direction -1 1.51393e-007 1.38143e-007
    length 4.03391
    axis -90 -90 0 xyz
    dof rz rx ry
    limits( -inf , inf )
( -inf , inf )
( -inf , inf )

  end
  begin
    id 19
    name rthumb
    direction 0 0 0
    length 0
    axis 0 0 0 xyz
    dof ry rx rz
    limits( -inf , inf )
( -inf , inf )
( -inf , inf )

  end
  begin
    id 20
    name rhand
    direction -1 -3.34077e-007 -5.59631e-007
    length 1.29744
    axis -90 -90 0 xyz
    dof ry rx rz
    limits( -inf , inf )
( -inf , inf )
( -inf , inf )

  end
  begin
    id 21
    name rfingers
    direction 0 0 0
    length 0
    axis 0 0 0 xyz
    dof rz ry rx
    limits( -inf , inf )
( -inf , inf )
( -inf , inf )

  end
  begin
    id 22
    name lclavicle
    direction 0.940017 0.332249 -0.0773232
    length 8.29589
    axis 0 -0 0 xyz
    dof rx ry rz
    limits( -inf , inf )
( -inf , inf )
( -inf , inf )

  end
  begin
    id 23
    name lhumerus
    direction 1 7.41158e-008 -1.44768e-008
    length 12.0042
    axis 180 -30 -90 xyz
    dof rx ry rz
    limits( -inf , inf )
( -inf , inf )
( -inf , inf )

  end
  begin
    id 24
    name lradius
    direction 1 -1.32972e-007 3.10821e-007
    length 8.1902
    axis 180 -30 -90 xyz
    dof rz ry rx
    limits( -inf , inf )
( -inf , inf )
( -inf , inf )

  end
  begin
    id 25
    name lwrist
    direction 1 3.08957e-007 4.01394e-007
    length 4.09509
    axis -90 90 0 xyz
    dof rz rx ry
    limits( -inf , inf )
( -inf , inf )
( -inf , inf )

  end
  begin
    id 26
    name lthumb
    direction 0 0 0
    length 0
    axis 0 0 0 xyz
    dof ry rx rz
    limits( -inf , inf )
( -inf , inf )
( -inf , inf )

  end
  begin
    id 27
    name lhand
    direction 1 -1.64125e-007 -6.99514e-007
    length 1.37229
    axis -90 90 0 xyz
    dof ry rx rz
    limits( -inf , inf )
( -inf , inf )
( -inf , inf )

  end
  begin
    id 28
    name lfingers
    direction 0 0 0
    length 0
    axis 0 0 0 xyz
    dof rz ry rx
    limits( -inf , inf )
( -inf , inf )
( -inf , inf )

  end
  begin
    id 29
    name lowerneck
    direction -0.030798 0.998024 0.0547665
    length 3.93918
    axis 0 -0 0 xyz
    dof rx ry rz
    limits( -inf , inf )
( -inf , inf )
( -inf , inf )

  end
  begin
    id 30
    name upperneck
    direction 0.0531588 0.996611 -0.0627736
    length 3.95491
    axis 0 -0 0 xyz
    dof rx ry rz
    limits( -inf , inf )
( -inf , inf )
( -inf , inf )

  end
  begin
    id 31
    name head
    direction 0 0 0
    length 0
    axis 0 0 0 xyz
    dof rx ry rz
    limits( -inf , inf )
( -inf , inf )
( -inf , inf )

  end
:hierarchy
  begin
    root lfemurDummy rfemurDummy lowerbackDummy
    lfemurDummy lfemur
    lfemur ltibia
    ltibia lfoot
    lfoot ltoes
    rfemurDummy rfemur
    rfemur rtibia
    rtibia rfoot
    rfoot rtoes
    lowerbackDummy lowerback
    lowerback upperback
    upperback thorax
    thorax rclavicle lclavicle lowerneck
    rclavicle rhumerus
    rhumerus rradius
    rradius rwrist
    rwrist rthumb rhand
    rhand rfingers
    lclavicle lhumerus
    lhumerus lradius
    lradius lwrist
    lwrist lthumb lhand
    lhand lfingers
    lowerneck upperneck
    upperneck head
  end

:SAMPLES-PER-SECOND 30
:FULLY-SPECIFIED
:DEGREES
92
root  5.213466779 39.9191098 3.054022226 -2.864990234 -58.5510025 3.573974609
lowerback  10.50399971 5.119160175 4.685480118
upperback  1.542529941 7.318039894 0.7440450191
thorax  -3.754189968 3.551470041 -2.793410063
lowerneck  -9.348899841 9.062120438 -2.420650005
upperneck  14.33769989 12.69810009 -0.3517790139
head  5.741179943 6.00590992 1.226780057
lclavicle  0 -9.442270133e-015 7.951389973e-016
lhumerus  -12.84770012 -17.33480072 82.7609024
lradius  2.766975156e-031 -2.193784977e-031 141.5910034
lwrist  -1.059337512e-030 -3.531125038e-031 -5.403810024
lhand  -1.496451383e-031 -27.76390076 20.11240005
lfingers  90 7.125020027 -90
lthumb  89.89689403 5.08795885 91.16245106
rclavicle  0 -9.442270133e-015 7.951389973e-016
rhumerus  7.035280228 31.8307991 -81.82389832
rradius  -2.525090535e-031 2.468352047e-031 135.651001
rwrist  7.062250077e-031 -0 -6.011209965
rhand  -7.920061211e-032 -33.2840004 9.303460121
rfingers  -90 -7.125020027 -90
rthumb  -92.93752616 -24.25625642 -97.11982154
rfemur  -6.940169811 11.09020042 9.114029884
rtibia  -0 0 44.74869919
rfoot  -9.517703638e-032 -21.94930077 -4.171460152
rtoes  5.373923086 19.29304026 -105.8922705
lfemur  -28.12339973 13.52830029 -8.782219887
ltibia  -0 0 66.98100281
lfoot  -0 10.1402998 -12.94849968
ltoes  -4.250644065 -19.5611806 -102.515957
93
root  5.361577657 40.04511195 3.189577643 -3.789001465 -59.83999634 4.721984863
lowerback  10.95699978 5.221779823 4.546000004
upperback  1.723819971 7.445509911 0.6408720016
thorax  -3.807960033 3.614279985 -2.875099897
lowerneck  -9.497879982 9.277259827 -2.113630056
upperneck  14.23359966 13.02079964 -0.8414540291
head  5.785439968 6.14192009 1.063459992
lclavicle  0 -9.442270133e-015 7.951389973e-016
lhumerus  -14.51659966 -16.87800026 82.83100128
lradius  2.802629891e-031 -2.148047889e-031 142.5319977
lwrist  0 -3.531125038e-031 -5.246140003
lhand  -1.496451383e-031 -27.76390076 20.11240005
lfingers  90 7.125020027 -90
lthumb  89.89689403 5.08795885 91.16245106
rclavicle  0 -9.442270133e-015 7.951389973e-016
rhumerus  7.034480095 32.09540176 -81.70030212
rradius  -2.511048837e-031 2.482635248e-031 135.326004
rwrist  7.062250077e-031 -0 -6.189020157
rhand  -7.920061211e-032 -33.2840004 9.303460121
rfingers  -90 -7.125020027 -90
rthumb  -92.93752616 -24.25625642 -97.11982154
rfemur  -8.087309837 11.10000038 7.670829773
rtibia  -0 0 45.19260025
rfoot  -5.87647571e-032 -20.13349915 -1.52136004
rtoes  5.373923086 19.29304026 -105.8922705
lfemur  -28.19949913 13.23400021 -8.77892971
ltibia  -0 0 66.62660217
lfoot  -0 11.41030025 -14.74969959
ltoes  -4.250644065 -19.5611806 -102.515957
94
root  5.517244339 40.14866746 3.333333158 -5.598999023 -61.04499817 6.744995117
lowerback  11.47430038 5.326129913 4.026010036
upperback  1.978839993 7.522210121 0.4285250008
thorax  -3.857049942 3.657089949 -2.860169888
lowerneck  -9.664190292 9.466850281 -1.666650057
upperneck  14.1505003 13.29580021 -1.37962997
head  5.85461998 6.256609917 0.8649160266
lclavicle  0 -9.442270133e-015 7.951389973e-016
lhumerus  -16.24130058 -16.4822998 82.96089935
lradius  2.836905032e-031 -2.102573157e-031 143.4559937
lwrist  -3.531125038e-031 -7.062250077e-031 -5.07366991
lhand  -1.496451383e-031 -27.76390076 20.11240005
lfingers  90 7.125020027 -90
lthumb  89.89689403 5.08795885 91.16245106
rclavicle  0 -9.442270133e-015 7.951389973e-016
rhumerus  6.93170023 32.18109894 -81.52549744
rradius  -2.506581913e-031 2.487145181e-031 135.2230072
rwrist  7.062250077e-031 -0 -7.171110153
rhand  -7.920061211e-032 -33.2840004 9.303460121
rfingers  -90 -7.125020027 -90
rthumb  -92.93752616 -24.25625642 -97.11982154
rfemur  -9.300350189 11.09619999 5.776120186
rtibia  -0 0 45.84420013
rfoot  -5.229505673e-032 -18.27840042 0.524748981
rtoes  5.373923086 19.29304026 -105.8922705
lfemur  -28.05109978 13.11429977 -9.203780174
ltibia  -0 0 66.03820038
lfoot  -0 11.84780025 -15.54599953
ltoes  -4.250644065 -19.5611806 -102.515957
95
root  5.67557793 40.25088934 3.478933319 -7.283996582 -62.20300293 8.617004395
lowerback  11.95930004 5.434790134 3.562829971
upperback  2.238739967 7.607540131 0.3092640042
thorax  -3.888020039 3.702939987 -2.778490067
lowerneck  -9.636910439 9.648030281 -1.378530025
upperneck  13.92479992 13.55000019 -1.788859963
head  5.828400135 6.370440006 0.7117040157
lclavicle  0 -9.442270133e-015 7.951389973e-016
lhumerus  -17.99430084 -16.08480072 83.21289825
lradius  2.869760351e-031 -2.057503235e-031 144.3609924
lwrist  -7.062250077e-031 -0 -4.989069939
lhand  -1.496451383e-031 -27.76390076 20.11240005
lfingers  90 7.125020027 -90
lthumb  89.89689403 5.08795885 91.16245106
rclavicle  0 -9.442270133e-015 7.951389973e-016
rhumerus  6.86289978 32.18489838 -81.13690186
rradius  -2.501671552e-031 2.492084164e-031 135.1100006
rwrist  0 -1.765562519e-031 -7.96901989
rhand  -7.920061211e-032 -33.2840004 9.303460121
rfingers  -90 -7.125020027 -90
rthumb  -92.93752616 -24.25625642 -97.11982154
rfemur  -10.66100025 11.23499966 4.077030182
rtibia  -0 0 46.61970139
rfoot  -4.600033367e-032 -16.35449982 1.756649971
rtoes  5.373923086 19.29304026 -105.8922705
lfemur  -27.84679985 12.81159973 -9.50992012
ltibia  -0 0 65.29450226
lfoot  -0 11.4375 -14.87290001
ltoes  -4.250644065 -19.5611806 -102.515957
